<svg width="193" height="201" fill="none" xmlns="http://www.w3.org/2000/svg"><rect x=".5" y=".5" width="192" height="200" rx="4.5" fill="#fff" stroke="#F3F3F3"/><path d="M54.254 132.994V145h2.34v-9.99h4.824V145h2.34v-12.006h-9.504Zm17.544 9.504c-.36.63-.972 1.026-1.818 1.026-.846 0-1.332-.396-1.566-.738-.27-.342-.378-.828-.378-1.314h5.832v-.18c0-.882-.108-2.034-.936-3.06-.558-.648-1.458-1.278-3.042-1.278-.936 0-2.016.216-2.934 1.098-.558.558-1.188 1.494-1.188 3.06 0 1.224.36 2.232 1.224 3.042.774.738 1.71 1.098 2.988 1.098 2.736 0 3.6-1.854 3.834-2.43l-2.016-.324Zm-3.69-2.43c.198-1.062 1.026-1.566 1.836-1.566s1.656.486 1.854 1.566h-3.69Zm9.656 3.924c.864 1.152 1.962 1.26 2.502 1.26 1.152 0 2.052-.45 2.646-1.008.45-.45 1.224-1.368 1.224-3.15 0-1.566-.594-2.52-1.17-3.096-.882-.882-1.998-1.044-2.664-1.044-1.44 0-2.196.774-2.538 1.26v-1.008h-2.196v11.916h2.196v-5.13Zm1.944-5.094c.522 0 1.08.198 1.494.558.432.414.666 1.062.666 1.638 0 .576-.198 1.224-.684 1.656-.288.27-.756.558-1.476.558-.702 0-1.152-.252-1.44-.522-.432-.378-.72-.972-.72-1.692 0-.702.252-1.26.738-1.674.378-.342.864-.522 1.422-.522Zm6.126-1.692V145h4.014c.324 0 1.134-.036 1.746-.504.378-.288.828-.81.828-1.728 0-.702-.252-1.152-.594-1.458a2.118 2.118 0 0 0-1.026-.504c.702-.306 1.08-.936 1.08-1.602a1.9 1.9 0 0 0-.756-1.53c-.63-.486-1.332-.468-1.854-.468h-3.438Zm2.196 3.096v-1.368h.972c.216 0 .45 0 .648.126.126.09.252.27.252.558 0 .234-.09.414-.288.54-.234.144-.522.144-.576.144H88.03Zm0 2.97v-1.566h1.08c.198 0 .522.018.756.18.144.09.288.27.288.558a.807.807 0 0 1-.288.63c-.234.198-.576.198-.81.198H88.03Zm6.013-6.066V145h2.196l3.6-4.806V145h2.196v-7.794h-2.196l-3.6 4.806v-4.806h-2.196Zm14.5 7.794h2.196v-7.794h-2.196v3.33c-.414.072-.72.108-1.134.108-.288 0-.81 0-1.116-.288-.27-.27-.27-.576-.27-.846v-2.304h-2.196v2.754c0 .576.072 1.242.702 1.836.702.648 1.584.72 2.178.72.648 0 1.278-.054 1.836-.18V145Zm4.291 0h2.196v-3.168h3.06V145h2.196v-7.794h-2.196v2.754h-3.06v-2.754h-2.196V145Zm9.545-7.794V145h4.014c.522 0 1.17-.072 1.746-.576.378-.342.828-.954.828-1.98 0-.774-.252-1.314-.594-1.674-.558-.594-1.386-.792-2.088-.792h-1.71v-2.772h-2.196Zm2.196 6.066v-1.566h1.08c.198 0 .522.018.756.18.144.09.288.27.288.558a.807.807 0 0 1-.288.63c-.234.198-.576.198-.81.198h-1.026Zm5.22-6.066V145h2.196v-7.794h-2.196Zm4.291 0V145h2.196l3.6-4.806V145h2.196v-7.794h-2.196l-3.6 4.806v-4.806h-2.196Zm5.508-3.906c-.198.774-.864 1.134-1.512 1.134-.774 0-1.368-.486-1.512-1.134l-1.44.684c.522 1.494 1.998 1.854 2.952 1.854s2.43-.36 2.952-1.854l-1.44-.684Zm-64.466 25.654c-1.494 0-2.484.468-3.15 1.098-.774.702-1.314 1.764-1.314 3.06 0 1.278.54 2.34 1.314 3.042.666.63 1.656 1.098 3.15 1.098s2.484-.468 3.15-1.098c.774-.702 1.314-1.764 1.314-3.042 0-1.296-.54-2.358-1.314-3.06-.666-.63-1.656-1.098-3.15-1.098Zm0 6.354c-1.278 0-2.196-1.008-2.196-2.196 0-1.224.936-2.214 2.196-2.214 1.26 0 2.196.99 2.196 2.214 0 1.188-.918 2.196-2.196 2.196Zm12.03-5.886c-.63-.306-1.296-.468-2.106-.468-.774 0-1.854.162-2.808 1.008-.792.702-1.35 1.8-1.35 3.168 0 1.458.648 2.43 1.242 2.988.702.666 1.782 1.134 3.006 1.134.918 0 1.584-.27 2.016-.486v-2.142a2.459 2.459 0 0 1-1.728.684c-1.314 0-2.268-.918-2.268-2.214 0-1.152.738-2.196 2.196-2.196.774 0 1.314.252 1.8.684v-2.16Zm.828 7.578h2.195l.648-4.23 1.945 4.23h.791l1.945-4.23.647 4.23h2.197l-1.422-7.794h-1.62l-2.142 4.482-2.142-4.482h-1.62L87.986 167Zm15.882-8.046c-1.494 0-2.484.468-3.15 1.098-.774.702-1.314 1.764-1.314 3.06 0 1.278.54 2.34 1.314 3.042.666.63 1.656 1.098 3.15 1.098s2.484-.468 3.15-1.098c.774-.702 1.314-1.764 1.314-3.042 0-1.296-.54-2.358-1.314-3.06-.666-.63-1.656-1.098-3.15-1.098Zm0 6.354c-1.278 0-2.196-1.008-2.196-2.196 0-1.224.936-2.214 2.196-2.214 1.26 0 2.196.99 2.196 2.214 0 1.188-.918 2.196-2.196 2.196Zm11.742-4.23v-1.872h-6.516v1.872h2.16V167h2.196v-5.922h2.16Zm3.349 4.914c.864 1.152 1.962 1.26 2.502 1.26 1.152 0 2.052-.45 2.646-1.008.45-.45 1.224-1.368 1.224-3.15 0-1.566-.594-2.52-1.17-3.096-.882-.882-1.998-1.044-2.664-1.044-1.44 0-2.196.774-2.538 1.26v-1.008h-2.196v11.916h2.196v-5.13Zm1.944-5.094c.522 0 1.08.198 1.494.558.432.414.666 1.062.666 1.638 0 .576-.198 1.224-.684 1.656-.288.27-.756.558-1.476.558-.702 0-1.152-.252-1.44-.522-.432-.378-.72-.972-.72-1.692 0-.702.252-1.26.738-1.674.378-.342.864-.522 1.422-.522Z" fill="#333"/><path d="M117.445 97.799V86.285h7.676v14.072a5.116 5.116 0 0 1-5.117 5.117h-2.559v-7.675Z" fill="#F6BB92"/><path d="m121.283 74.773 1.08-2.559.958-2.269a6.66 6.66 0 0 0-1.43-7.293 6.663 6.663 0 0 1-1.951-4.71v-6.195H91.861v6.195a6.662 6.662 0 0 1-1.95 4.71 6.662 6.662 0 0 0-1.431 7.293l1.013 2.412 31.79 2.416Z" fill="#834B10"/><path d="M125.121 79.995a7.678 7.678 0 0 0-6.414-7.57l-1.262-.21-6.606-1.102-4.907 4.939-4.958-4.977-9.113 1.14v33.259h25.584V95.24a7.235 7.235 0 0 0 1.018-8.954h6.658v-6.29Z" fill="#85BC94"/><path d="M120.004 53.026H91.861V45.35a14.071 14.071 0 0 1 28.143 0v7.675Z" fill="#834B10"/><path d="M116.166 49.188h-1.279v-7.675h-17.91v7.675H95.7a3.838 3.838 0 1 0 0 7.676h1.279v1.279a8.954 8.954 0 1 0 17.909 0v-1.28h1.279a3.839 3.839 0 0 0 0-7.675Z" fill="#F6BB92"/><path d="M104.653 80.937v24.537H76.031a24.693 24.693 0 0 1 3.313-4.113l.094-.094a25.357 25.357 0 0 0 5.39-7.954c.503-1.17 1.003-2.34 1.368-3.19l.548-1.279h-3.68a5.122 5.122 0 0 1-4.964-3.876l-.63-2.52-.165-.659a2.559 2.559 0 0 1 2.482-3.179h4.399a10.93 10.93 0 0 1 4.747-5.92l.56-.334a9.979 9.979 0 0 1 9.59-.369l.057.029a9.98 9.98 0 0 1 4.024 3.677 9.98 9.98 0 0 1 1.489 5.244Z" fill="#BD9070"/><path d="M104.653 81.169v3.63a3.837 3.837 0 1 1-7.675 0V78.61h5.117l2.558 2.559ZM92.766 87.19l-2.558 2.559a1.28 1.28 0 0 1-.905.374h-3.107l.548-1.279h-3.68a5.098 5.098 0 0 1-3.383-1.28h9.092l2.183-2.183a1.28 1.28 0 0 1 1.81 1.81ZM81.627 78.61v1.546a2.291 2.291 0 0 1-2.291 2.292H77.47l-.165-.659a2.56 2.56 0 0 1 2.482-3.179h1.84ZM85.595 102.314a1.277 1.277 0 0 1-1.273-1.394 1.28 1.28 0 0 1 .25-.653 23.604 23.604 0 0 0 3.517-6.71 1.278 1.278 0 0 1 2.365-.174 1.28 1.28 0 0 1 .062.983 26.15 26.15 0 0 1-3.897 7.436 1.269 1.269 0 0 1-1.024.512Z" fill="#9E785D"/><path d="M95.699 49.188a8.723 8.723 0 0 0 5.34-5.035l1.056-2.64-6.396-1.28v8.955ZM102.095 41.513l.15.225a16.727 16.727 0 0 0 13.921 7.45v-8.954l-14.071 1.279ZM101.135 53.346a1.6 1.6 0 1 0 0-3.198 1.6 1.6 0 0 0 0 3.198ZM110.73 53.346a1.6 1.6 0 1 0 0-3.198 1.6 1.6 0 0 0 0 3.198ZM105.932 58.143h-2.558a1.278 1.278 0 0 1-1.144-1.852l2.558-5.116a1.289 1.289 0 0 1 .74-.65 1.28 1.28 0 0 1 1.549 1.794l-1.633 3.265h.488a1.28 1.28 0 1 1 0 2.559Z" fill="#834B10"/><path d="M113.608 82.448a1.28 1.28 0 0 1-1.279-1.28v-8.954a1.278 1.278 0 1 1 2.558 0v8.955a1.28 1.28 0 0 1-1.279 1.279Z" fill="#C3C3C3"/><path d="M113.608 88.844a3.837 3.837 0 1 0 0-7.675 3.837 3.837 0 0 0 0 7.675Z" fill="#E4E4E2"/><path d="M113.608 86.286a1.28 1.28 0 1 0 0-2.56 1.28 1.28 0 0 0 0 2.56Z" fill="#C3C3C3"/><path d="M118.725 105.474H99.536a3.836 3.836 0 0 1-2.713-6.551 3.838 3.838 0 0 1 2.713-1.124h1.28a2.557 2.557 0 0 1 2.558-2.559h.22c.678 0 1.329.27 1.808.75l1.81 1.809h11.513v7.675ZM76.173 99.535a3.19 3.19 0 0 0 2.044 4.386l4.924 1.391a3.836 3.836 0 0 0 4.393-5.566 3.838 3.838 0 0 0-2.306-1.82l-1.23-.347a2.558 2.558 0 0 0-1.767-3.158l-.211-.06a2.558 2.558 0 0 0-1.945.23 7.766 7.766 0 0 0-3.286 3.58l-.616 1.364Z" fill="#F6BB92"/><path d="M69.51 64.348c.851 0 1.668.338 2.27.94l1.618 1.618 1.618-1.617a3.212 3.212 0 0 1 5.386 1.492A3.927 3.927 0 0 1 78.772 71l-5.374 3.581L68.026 71a3.926 3.926 0 0 1-1.631-4.22 3.211 3.211 0 0 1 3.115-2.432Z" fill="#DC4D41"/><path d="M95.699 49.188h1.279v7.675h-1.28v-7.675ZM114.887 49.188h1.279v7.675h-1.279v-7.675Z" fill="#EEB58E"/><path d="m100.974 71.075 4.958 4.977 4.907-4.939a1.28 1.28 0 0 1-1.069-1.262v-4.033h-7.675v3.988a1.28 1.28 0 0 1-1.121 1.27Z" fill="#F6BB92"/><path d="M105.932 67.097a8.954 8.954 0 0 1-8.954-8.954v-1.28h17.909v1.28a8.956 8.956 0 0 1-8.955 8.954Z" fill="#85BC94"/><path d="M90.582 81.169a1.28 1.28 0 1 0 0-2.559 1.28 1.28 0 0 0 0 2.559Z" fill="#9E785D"/><path d="M101.135 53.346a1.6 1.6 0 1 0 0-3.198 1.6 1.6 0 0 0 0 3.198ZM110.73 53.346a1.6 1.6 0 1 0 0-3.198 1.6 1.6 0 0 0 0 3.198ZM113.608 86.286a1.28 1.28 0 1 0 0-2.56 1.28 1.28 0 0 0 0 2.56Z" fill="#000"/><path d="m123.319 73.238 1.181-2.797a7.917 7.917 0 0 0-1.706-8.694 5.37 5.37 0 0 1-1.576-3.806l.065-12.59a15.35 15.35 0 1 0-30.701 0v12.59a5.421 5.421 0 0 1-1.576 3.806 7.938 7.938 0 0 0-1.706 8.694l.587 1.397a12.195 12.195 0 0 0-4.586 5.493h-3.514a3.811 3.811 0 0 0-3.277 1.839 3.802 3.802 0 0 0-.447 2.93l.165.659.63 2.519a6.386 6.386 0 0 0 6.204 4.845h1.741l-1.151 2.687c-.099.23-.203.46-.31.689a3.865 3.865 0 0 0-.763-.31l-.212-.06a3.813 3.813 0 0 0-2.917.344 9.104 9.104 0 0 0-3.827 4.171l-.616 1.365a4.47 4.47 0 0 0 .659 4.724c-.246.345-.484.695-.712 1.049a1.277 1.277 0 0 0 .424 1.792c.197.117.423.179.653.179h43.973a6.402 6.402 0 0 0 6.396-6.396V79.995a8.959 8.959 0 0 0-3.081-6.757Zm.523 6.757v5.011h-4.71a8.18 8.18 0 0 0-.436-.536 5.127 5.127 0 0 0-3.809-4.418v-6.968l2.348.392h.001l1.261.21a6.392 6.392 0 0 1 5.345 6.309Zm-7.385 14.433-.016.022a.885.885 0 0 0-.059.08l-.013.02a1.384 1.384 0 0 0-.051.087l-.008.016a1.535 1.535 0 0 0-.046.098l-.004.01c-.014.035-.027.071-.038.108l-.003.011a1.31 1.31 0 0 0-.028.11l-.004.03a1.087 1.087 0 0 0-.021.221v1.28h-8.424l-1.434-1.434a3.865 3.865 0 0 0-.376-.327V80.937a11.246 11.246 0 0 0-.655-3.789 1.275 1.275 0 0 0 1.679-.329l3.384-4.512c.094.028.191.05.288.067l1.701.284v7.394a5.116 5.116 0 1 0 5.514 7.823 5.957 5.957 0 0 1-1.302 6.46c-.029.03-.058.061-.084.093Zm-20.76-43.96h.002v5.116a2.56 2.56 0 0 1-1.811-4.366c.479-.48 1.13-.75 1.808-.75Zm23.028 2.558a2.561 2.561 0 0 1-2.559 2.558v-5.117a2.559 2.559 0 0 1 2.559 2.559Zm-5.117 2.558h-8.164l1.633-3.265a1.291 1.291 0 0 0 .075-.98 1.288 1.288 0 0 0-.643-.745 1.278 1.278 0 0 0-1.721.58l-2.205 4.41h-4.326v-6.201a9.991 9.991 0 0 0 3.97-4.755l.206-.514a17.85 17.85 0 0 0 11.175 6.17v5.3Zm-10.241 2.559h10.241a7.677 7.677 0 0 1-13.103 5.427 7.676 7.676 0 0 1-2.248-5.427h5.11Zm2.565 10.233c.864.001 1.723-.108 2.559-.323v1.798c.001.192.023.383.066.57l-2.625 3.499-2.633-3.511c.049-.197.074-.4.075-.603v-1.753c.836.215 1.695.324 2.558.323Zm-2.558 16.422a2.562 2.562 0 0 1-2.558 2.559 2.559 2.559 0 0 1-2.559-2.558v-4.91h3.308l1.809 1.81v3.1Zm12.792.208a2.559 2.559 0 1 1-5.118 0 2.559 2.559 0 0 1 5.118 0Zm5.976-15.558-1.009 2.388a8.909 8.909 0 0 0-2.215-.672l-1.261-.211h-.001l-6.607-1.102V67a10.234 10.234 0 0 0 5.117-8.857c.873 0 1.732-.224 2.493-.65v.448a7.926 7.926 0 0 0 2.327 5.616 5.362 5.362 0 0 1 1.156 5.891Zm-16.21-36.89a12.795 12.795 0 0 1 12.793 12.793v3.246a5.086 5.086 0 0 0-2.559-.688c-.4 0-.796-.016-1.181-.046a15.345 15.345 0 0 1-11.675-6.834l-.15-.226a1.283 1.283 0 0 0-1.197-.562 1.28 1.28 0 0 0-1.055.797l-1.056 2.64a7.425 7.425 0 0 1-4.39 4.237 5.08 5.08 0 0 0-2.322.682v-3.246a12.807 12.807 0 0 1 12.792-12.793ZM90.815 63.557a7.888 7.888 0 0 0 2.325-5.616v-.486c.777.452 1.66.689 2.559.688A10.237 10.237 0 0 0 100.816 67v2.806l-2.862.358c-.242-.076-.489-.146-.743-.207a11.246 11.246 0 0 0-7.073.632l-.48-1.14a5.38 5.38 0 0 1 1.156-5.892ZM79.787 79.889h.561v.267a1.013 1.013 0 0 1-1.012 1.013h-.827l.001-.024c.001-.053.005-.107.013-.16l.007-.047c.011-.062.026-.122.046-.18l.007-.019a1.298 1.298 0 0 1 .197-.359 1.27 1.27 0 0 1 1.007-.49Zm9.516 10.234a1.279 1.279 0 0 0 .904-.374l2.559-2.559a1.28 1.28 0 0 0-1.81-1.809l-2.183 2.184h-5.71a3.831 3.831 0 0 1-3.722-2.907l-.233-.93h.228a3.575 3.575 0 0 0 3.57-3.572v-.267h1.28a1.28 1.28 0 0 0 1.213-.874 9.65 9.65 0 0 1 4.19-5.226l.562-.336a8.69 8.69 0 0 1 8.348-.328l.068.035c.58.29 1.127.645 1.627 1.058l.041.032a8.67 8.67 0 0 1 2.413 3.209 1.274 1.274 0 0 0-.553-.128h-5.117a1.28 1.28 0 0 0-1.28 1.28v6.188a5.107 5.107 0 0 0 7.676 4.427v4.735a3.84 3.84 0 0 0-3.62 2.558h-.218a5.113 5.113 0 0 0-4.428 7.676h-6.5a5.124 5.124 0 0 0-.096-5.302 26.333 26.333 0 0 0 2.005-4.527 1.28 1.28 0 0 0-2.427-.81 23.755 23.755 0 0 1-1.513 3.54 5.107 5.107 0 0 0-1-.4l-.21-.06a3.8 3.8 0 0 0-.21-1.027c.306-.59.59-1.19.847-1.792l1.583-3.694h1.716Zm-11.964 9.939.617-1.365a6.528 6.528 0 0 1 2.744-2.99 1.273 1.273 0 0 1 .972-.115l.211.06a1.28 1.28 0 0 1 .883 1.579 1.279 1.279 0 0 0 .883 1.579l1.232.348a2.559 2.559 0 0 1-1.391 4.924l-4.925-1.391a1.921 1.921 0 0 1-1.215-1.033 1.913 1.913 0 0 1-.01-1.595v-.001Zm46.503.295a3.843 3.843 0 0 1-3.838 3.838H99.536a2.558 2.558 0 0 1 0-5.117h1.28a1.279 1.279 0 0 0 1.279-1.28 1.267 1.267 0 0 1 .374-.905 1.268 1.268 0 0 1 .905-.374h.219c.339.003.664.137.906.376l1.808 1.808a1.284 1.284 0 0 0 .905.375h10.233a1.28 1.28 0 0 0 1.28-1.28v-2.052a8.522 8.522 0 0 0 1.727-8.181h3.39v12.792Z" fill="#000"/><path d="M81.643 66.47a4.491 4.491 0 0 0-7.531-2.086l-.713.713-.714-.713a4.49 4.49 0 0 0-7.531 2.086 5.216 5.216 0 0 0 2.162 5.594l5.373 3.582a1.279 1.279 0 0 0 1.419 0l5.373-3.582a5.216 5.216 0 0 0 2.162-5.594Zm-3.582 3.465-4.663 3.11-4.663-3.11a2.653 2.653 0 0 1-1.1-2.844 1.933 1.933 0 0 1 3.241-.898l1.618 1.618a1.279 1.279 0 0 0 1.809 0l1.618-1.618a1.934 1.934 0 0 1 3.24.898 2.653 2.653 0 0 1-1.1 2.844ZM90.582 81.169a1.28 1.28 0 1 0 0-2.559 1.28 1.28 0 0 0 0 2.559Z" fill="#000"/></svg>